<svg version="1" xmlns="http://www.w3.org/2000/svg" width="1333.333" height="1333.333" viewBox="0 0 1000.000000 1000.000000"><path d="M478.5.6c-113 6-212.9 44.7-299.5 116.2-14.8 12.3-49.9 47.4-62.2 62.2-34.6 41.9-61.3 86.6-80.7 134.7-39.3 97.7-46.5 205.9-20.6 309.2 29.8 118.7 104.5 224.4 207 292.8 108 72 239.3 99.1 367.1 75.8 123.7-22.6 233.7-90.8 310-192.2 51-67.8 84.1-149.5 95.3-234.8 5.8-44.3 5.3-94.5-1.4-139.5-7.4-49.9-24-102.2-46.9-148C897 178 818.5 100.1 719.5 51.5c-55.4-27.2-111.4-43.1-173.1-49C530.8 1 491.7-.1 478.5.6zm62.9 77.9c129.2 12.4 244.6 82.8 314.8 192 77 119.8 88 270.7 29.4 401.1-32.5 72-85.1 133.8-151.6 177.8-19.3 12.8-29.2 18.4-51.2 29-115 55.6-251.3 54.8-366.8-2C148.4 794 55.3 612.5 86.1 428c26.5-159.1 143.1-290 298.4-334.9 24-6.9 50.6-12 76-14.6 18.5-1.8 61.7-1.8 80.9 0z"/><path d="M473 129c-92 7.2-174.8 45.9-239 111.6-59.7 61.2-94.9 136.8-104.2 223.4-1.5 14.8-1.5 57.2 0 72 8 74.5 35.1 140.4 81.6 198.4 10.7 13.3 33.8 37 47.6 48.7 99 83.9 233.2 110.4 356.3 70.3C726.3 817.2 814.8 729.6 852 619c32.4-96.1 24.3-200.8-22.5-290.6-18-34.8-37.9-61.8-66.5-90.5-23.6-23.6-44.6-40.1-73-57.4-11.1-6.8-38.8-20.6-51-25.4-31.6-12.6-68.5-21.7-101.5-25.1-14.3-1.5-51-2-64.5-1z"/></svg>